<svg width="1280" height="720" xmlns="http://www.w3.org/2000/svg" xmlns:xlink="http://www.w3.org/1999/xlink" overflow="hidden"><defs><clipPath id="clip0"><rect x="0" y="0" width="1280" height="720"/></clipPath></defs><g clip-path="url(#clip0)"><rect x="0" y="0" width="1280" height="720" fill="#FFFFFF"/><rect x="-2" y="-1" width="909" height="723" fill="#29864C"/><path d="M396 722 828.599-1 1267 722Z" fill="#114024" fill-rule="evenodd"/><rect x="827" y="-1" width="454" height="723" fill="#114024"/><path d="M880.5 252.5 1110 252.5 1125.5 268 1110 283.5 880.5 283.5 896 268Z" stroke="#8D8D8D" stroke-miterlimit="8" fill="#208A2E" fill-rule="evenodd"/><path d="M82.5001 252.5 312 252.5 327.5 268 312 283.5 82.5001 283.5Z" stroke="#8D8D8D" stroke-miterlimit="8" fill="#E0F8E4" fill-rule="evenodd"/><path d="M298.5 252.5 528 252.5 543.5 268 528 283.5 298.5 283.5 314 268Z" stroke="#8D8D8D" stroke-miterlimit="8" fill="#B2EDBA" fill-rule="evenodd"/><path d="M502 252 731.5 252 747 267.5 731.5 283 502 283 517.5 267.5Z" stroke="#8D8D8D" stroke-width="2" stroke-miterlimit="8" fill="#66DB76" fill-rule="evenodd"/><path d="M707.5 252.5 937 252.5 952.5 268 937 283.5 707.5 283.5 723 268Z" stroke="#8D8D8D" stroke-miterlimit="8" fill="#2BB83E" fill-rule="evenodd"/><text font-family="Aptos,Aptos_MSFontService,sans-serif" font-weight="400" font-size="21.3333" transform="translate(125.622 275)">Requirements</text><text font-family="Aptos,Aptos_MSFontService,sans-serif" font-weight="400" font-size="21.3333" transform="translate(352.145 275)">Development</text><text font-family="Aptos,Aptos_MSFontService,sans-serif" font-weight="700" font-size="21.3333" transform="translate(565.063 275)">Sampling</text><text font-family="Aptos,Aptos_MSFontService,sans-serif" font-weight="400" font-size="21.3333" transform="translate(758.657 275)">Quality Release</text><text fill="#FFFFFF" font-family="Aptos,Aptos_MSFontService,sans-serif" font-weight="400" font-size="21.3333" transform="translate(999.975 275)">SOP</text><text fill="#FFFFFF" font-family="Aptos,Aptos_MSFontService,sans-serif" font-weight="700" font-size="26.6667" transform="translate(67.1581 644)">VDA 231</text><text fill="#FFFFFF" font-family="Aptos,Aptos_MSFontService,sans-serif" font-weight="700" font-size="26.6667" transform="translate(166.458 644)">-</text><text fill="#FFFFFF" font-family="Aptos,Aptos_MSFontService,sans-serif" font-weight="700" font-size="26.6667" transform="translate(175.458 644)">300 &amp; VDA 231</text><text fill="#FFFFFF" font-family="Aptos,Aptos_MSFontService,sans-serif" font-weight="700" font-size="26.6667" transform="translate(346.258 644)">-</text><text fill="#FFFFFF" font-family="Aptos,Aptos_MSFontService,sans-serif" font-weight="700" font-size="26.6667" transform="translate(355.258 644)">301 synchronizes development, supplier results and quality decisions</text><path d="M594 576 607.5 556 621 576Z" stroke="#000000" stroke-width="2" stroke-miterlimit="8" fill="#66DB76" fill-rule="evenodd"/><text fill="#FFFFFF" font-family="Aptos,Aptos_MSFontService,sans-serif" font-weight="700" font-size="53.3333" transform="translate(85.5347 102)">Use case material sampling</text><text fill="#FFFFFF" font-family="Aptos,Aptos_MSFontService,sans-serif" font-weight="700" font-size="24" transform="translate(85.5347 159)">A Key Process in the Product Development Process (PDP)</text><path d="M105 454C105 442.954 113.954 434 125 434L400 434C411.046 434 420 442.954 420 454L420 534C420 545.046 411.046 554 400 554L125 554C113.954 554 105 545.046 105 534Z" stroke="#FFFFFF" stroke-width="2" stroke-miterlimit="8" fill="#114024" fill-rule="evenodd"/><text fill="#FFFFFF" font-family="Aptos,Aptos_MSFontService,sans-serif" font-weight="700" font-size="24" transform="translate(191.647 470)">Supplier</text><text fill="#FFFFFF" font-family="Aptos,Aptos_MSFontService,sans-serif" font-weight="400" font-size="24" transform="translate(191.647 499)">Provides test results</text><text fill="#FFFFFF" font-family="Aptos,Aptos_MSFontService,sans-serif" font-weight="400" font-size="24" transform="translate(191.647 528)">&amp; evidence</text><g><g><g><path d="M56.4458 49.0042C54.7042 47.2625 51.8542 47.3417 49.7167 49.0042L46.3917 45.6792C55.0208 36.3375 54.4667 21.85 45.125 13.2208 35.7833 4.59167 21.375 5.225 12.7458 14.5667 4.11667 23.9083 4.75 38.3958 14.0125 47.025 22.8792 55.2583 36.575 55.1792 45.3625 46.8667L48.6875 50.1917C47.975 51.0625 47.5792 52.1708 47.4208 53.2792 47.2625 54.625 47.7375 55.9708 48.6875 56.9208L59.85 68.0833C60.7208 68.875 61.8292 69.35 63.0167 69.35 64.6 69.35 66.025 68.7167 67.1333 67.6083 68.1625 66.6583 68.7958 65.3125 68.875 63.8875 69.0333 62.5417 68.5583 61.1958 67.6083 60.2458L56.4458 49.0042ZM14.5667 45.2042C6.25417 36.8917 6.25417 23.3542 14.5667 14.9625 22.8792 6.57083 36.4167 6.65 44.8083 14.9625 53.2 23.275 53.1208 36.8125 44.8083 45.2042 40.7708 49.2417 35.3875 51.4583 29.6875 51.4583 24.0667 51.4583 18.6042 49.2417 14.5667 45.2042ZM65.9458 66.3417C64.4417 67.8458 62.1458 68.0833 60.8792 66.8167L49.7958 55.7333C49.1625 55.1 48.925 54.2292 49.0042 53.3583 49.0833 52.3292 49.5583 51.3792 50.35 50.6667 51.1417 49.875 52.25 49.4 53.3583 49.3208 54.15 49.3208 54.8625 49.5583 55.4167 50.1125L66.5 61.275C67.1333 61.9083 67.3708 62.7792 67.2917 63.65 67.1333 64.6792 66.7375 65.6292 65.9458 66.3417 65.9458 66.3417 65.9458 66.3417 65.9458 66.3417Z" fill="#FFFFFF" transform="matrix(6.2038e-17 1.01316 -1 6.12323e-17 188 457)"/></g></g></g><path d="M449 453C449 441.954 457.954 433 469 433L743 433C754.046 433 763 441.954 763 453L763 533C763 544.046 754.046 553 743 553L469 553C457.954 553 449 544.046 449 533Z" stroke="#FFFFFF" stroke-width="2" stroke-miterlimit="8" fill="#114024" fill-rule="evenodd"/><path d="M800 451C800 439.954 808.954 431 820 431L1104 431C1115.05 431 1124 439.954 1124 451L1124 531C1124 542.046 1115.05 551 1104 551L820 551C808.954 551 800 542.046 800 531Z" stroke="#FFFFFF" stroke-width="2" stroke-miterlimit="8" fill="#114024" fill-rule="evenodd"/><text fill="#FFFFFF" font-family="Aptos,Aptos_MSFontService,sans-serif" font-weight="700" font-size="24" transform="translate(523.513 471)">BTV</text><text fill="#FFFFFF" font-family="Aptos,Aptos_MSFontService,sans-serif" font-weight="400" font-size="24" transform="translate(523.513 500)">Defines requirements</text><text fill="#FFFFFF" font-family="Aptos,Aptos_MSFontService,sans-serif" font-weight="400" font-size="24" transform="translate(523.513 529)">&amp; target criteria</text><g><g><g><path d="M508.062 479.219C516.066 491.796 512.358 508.479 499.781 516.482 487.204 524.486 470.521 520.778 462.518 508.201 454.514 495.624 458.222 478.941 470.799 470.938 479.64 465.311 490.94 465.311 499.781 470.938L499.781 469.105C486.195 461.104 468.695 465.632 460.694 479.219 452.693 492.805 457.221 510.305 470.808 518.306 484.395 526.307 501.895 521.779 509.895 508.192 515.16 499.252 515.16 488.159 509.895 479.219Z" fill="#FFFFFF"/><path d="M495.902 478.677C487.605 472.821 476.132 474.8 470.276 483.098 464.42 491.395 466.399 502.868 474.696 508.724 482.993 514.58 494.467 512.601 500.323 504.304 504.809 497.947 504.809 489.455 500.323 483.098L499.201 484.219C504.435 491.894 502.457 502.36 494.781 507.594 487.106 512.829 476.64 510.85 471.406 503.175 466.171 495.499 468.15 485.034 475.825 479.799 481.542 475.9 489.064 475.9 494.781 479.799Z" fill="#FFFFFF"/><path d="M485.328 487.031C485.983 487.031 486.634 487.129 487.26 487.32L488.48 486.101C484.294 484.356 479.486 486.335 477.742 490.52 475.997 494.706 477.975 499.514 482.161 501.258 486.347 503.003 491.154 501.025 492.899 496.839 493.742 494.817 493.742 492.542 492.899 490.52L491.68 491.74C492.747 495.249 490.768 498.958 487.259 500.025 483.75 501.092 480.041 499.113 478.974 495.604 477.907 492.095 479.886 488.386 483.395 487.319 484.022 487.128 484.673 487.031 485.328 487.031Z" fill="#FFFFFF"/><path d="M517.691 468.763C517.57 468.471 517.285 468.281 516.969 468.281L510.719 468.281 510.719 462.031C510.719 461.6 510.369 461.25 509.937 461.25 509.73 461.25 509.532 461.332 509.385 461.479L502.354 468.51C502.207 468.657 502.125 468.855 502.125 469.062L502.125 475.77 484.776 493.12C484.465 493.419 484.457 493.914 484.757 494.224 485.056 494.535 485.551 494.543 485.861 494.243 485.868 494.237 485.874 494.231 485.88 494.224L503.23 476.875 509.938 476.875C510.145 476.875 510.343 476.793 510.49 476.646L517.521 469.615C517.745 469.391 517.812 469.055 517.691 468.763ZM503.688 469.386 509.143 463.93C509.15 463.923 509.156 463.926 509.156 463.936L509.156 468.739 503.688 474.208ZM509.614 475.312 504.792 475.312 510.261 469.844 515.064 469.844C515.074 469.844 515.077 469.85 515.07 469.857Z" fill="#FFFFFF"/></g></g></g><text fill="#FFFFFF" font-family="Aptos,Aptos_MSFontService,sans-serif" font-weight="700" font-size="24" transform="translate(886.485 474)">Quality engineer</text><text fill="#FFFFFF" font-family="Aptos,Aptos_MSFontService,sans-serif" font-weight="400" font-size="24" transform="translate(886.485 503)">Assesses maturity</text><text fill="#FFFFFF" font-family="Aptos,Aptos_MSFontService,sans-serif" font-weight="400" font-size="24" transform="translate(886.485 532)">&amp; gives quality release</text><g><g><g><path d="M827.781 476.552 825.209 473.979 824.104 475.084 827.781 478.761 835.365 471.177 834.26 470.073 827.781 476.552Z" fill="#FFFFFF"/><path d="M840.281 474.531 855.125 474.531 855.125 476.094 840.281 476.094Z" fill="#FFFFFF"/><path d="M827.781 488.27 825.209 485.698 824.104 486.802 827.781 490.48 835.365 482.896 834.26 481.791 827.781 488.27Z" fill="#FFFFFF"/><path d="M840.281 486.25 855.125 486.25 855.125 487.812 840.281 487.812Z" fill="#FFFFFF"/><path d="M827.781 499.989 825.209 497.416 824.104 498.521 827.781 502.198 835.365 494.615 834.26 493.51 827.781 499.989Z" fill="#FFFFFF"/><path d="M840.281 497.969 855.125 497.969 855.125 499.531 840.281 499.531Z" fill="#FFFFFF"/><path d="M827.781 511.708 825.209 509.135 824.104 510.24 827.781 513.917 835.365 506.334 834.26 505.229 827.781 511.708Z" fill="#FFFFFF"/><path d="M840.281 509.688 855.125 509.688 855.125 511.25 840.281 511.25Z" fill="#FFFFFF"/><path d="M816.062 523.75 862.938 523.75 862.938 461.25 816.062 461.25ZM817.625 462.812 861.375 462.812 861.375 522.188 817.625 522.188Z" fill="#FFFFFF"/></g></g></g><path d="M580 554C580 564.493 577.087 573 573.494 573L256.506 573C252.913 573 250 564.493 250 554" stroke="#FFFFFF" stroke-width="2.33333" stroke-miterlimit="8" fill="none" fill-rule="evenodd"/><path d="M965 552C965 564.703 961.474 575 957.124 575L644.876 575C640.526 575 637 564.703 637 552" stroke="#FFFFFF" stroke-width="2.33333" stroke-miterlimit="8" fill="none" fill-rule="evenodd"/><g><g><g><path d="M59.3542 47.7768 59.3572 20.0326 14.6466 20.0326 14.6466 47.7904ZM16.1883 21.5743 57.8155 21.5743 57.8125 46.2355 16.1883 46.2481Z" fill="#FFFFFF" transform="matrix(1.01351 0 0 1 220 329)"/><path d="M12.3341 19.2605C12.3351 18.4095 13.0248 17.7198 13.8758 17.7188L60.128 17.7188C60.979 17.7199 61.6686 18.4095 61.6697 19.2605L61.6697 50.875 63.2113 50.875 63.2113 19.2605C63.2096 17.5583 61.8302 16.1789 60.128 16.1772L13.8758 16.1772C12.1736 16.1789 10.7942 17.5583 10.7924 19.2605L10.7924 50.875 12.3341 50.875Z" fill="#FFFFFF" transform="matrix(1.01351 0 0 1 220 329)"/><path d="M40.8564 53.1729 40.8564 54.7145 33.1474 54.7145 33.1474 53.1729 1.54167 53.1729 1.54167 54.7138C1.54392 56.8416 3.26805 58.566 5.39583 58.5687L68.6072 58.5687C70.7352 58.5664 72.4598 56.8418 72.4621 54.7138L72.4621 53.1729ZM68.6072 57.027 5.39583 57.027C4.11936 57.0254 3.08499 55.991 3.08333 54.7145L31.6057 54.7145C31.5773 55.5375 32.2215 56.2277 33.0445 56.2562 33.0788 56.2573 33.1131 56.2573 33.1474 56.2562L40.8564 56.2562C41.6794 56.2846 42.3696 55.6404 42.3981 54.8174 42.3992 54.7831 42.3992 54.7488 42.3981 54.7145L70.9204 54.7145C70.9184 55.9912 69.8838 57.0254 68.6072 57.027Z" fill="#FFFFFF" transform="matrix(1.01351 0 0 1 220 329)"/><path d="M37 23.8958C31.4656 23.8958 26.9792 28.3823 26.9792 33.9167 26.9792 39.451 31.4656 43.9375 37 43.9375 42.5344 43.9375 47.0208 39.451 47.0208 33.9167 47.0145 28.3849 42.5317 23.9022 37 23.8958ZM45.4401 33.1458 42.728 33.1458C42.6214 30.3835 41.471 27.7643 39.509 25.8169 42.7844 26.8383 45.124 29.7294 45.4401 33.1458ZM36.2292 26.3822 36.2292 33.1458 32.8176 33.1458C33.0133 30.2389 34.3046 27.7037 36.2292 26.3822ZM36.2292 34.6875 36.2292 41.4519C34.3068 40.1283 33.0148 37.5847 32.8182 34.6875ZM37.7708 41.4506 37.7708 34.6875 41.1818 34.6875C40.9852 37.5815 39.6923 40.1263 37.7708 41.4506ZM37.7708 33.1458 37.7708 26.3834C39.6921 27.7077 40.9852 30.252 41.1818 33.1458ZM34.4768 25.8211C32.5184 27.7679 31.3728 30.3862 31.2722 33.1458L28.5599 33.1458C28.8754 29.7347 31.2083 26.8467 34.4768 25.8211ZM28.5599 34.6875 31.272 34.6875C31.3773 37.4494 32.5268 40.0684 34.4882 42.0157 31.2142 40.9933 28.8759 38.1028 28.5599 34.6875ZM39.5098 42.0163C41.4714 40.0687 42.6215 37.4497 42.728 34.6875L45.4401 34.6875C45.124 38.1036 42.7848 40.9945 39.5098 42.0163Z" fill="#FFFFFF" transform="matrix(1.01351 0 0 1 220 329)"/></g></g></g><g><g><g><path d="M965.5 345.792C966.93 345.792 968.089 344.633 968.089 343.203 968.089 341.773 966.93 340.615 965.5 340.615L965.426 340.615C964.019 340.64 962.896 341.796 962.911 343.203 962.914 344.632 964.071 345.789 965.5 345.792ZM965.451 342.094 965.5 342.094C966.113 342.094 966.609 342.59 966.609 343.203 966.609 343.816 966.113 344.312 965.5 344.312 964.887 344.312 964.391 343.816 964.391 343.203 964.391 343.2 964.391 343.196 964.391 343.193 964.381 342.597 964.855 342.105 965.451 342.094Z" fill="#FFFFFF"/><path d="M950.708 357.625 979.552 357.625 979.552 359.104 950.708 359.104Z" fill="#FFFFFF"/><path d="M950.708 363.542 965.5 363.542 965.5 365.021 950.708 365.021Z" fill="#FFFFFF"/><path d="M968.458 379.073 980.292 379.073 980.292 380.552 968.458 380.552Z" fill="#FFFFFF"/><path d="M954.806 390.34 958.186 383.98 961.565 390.34 962.874 387.55 965.918 388.026 962.55 381.675C963.231 381.377 963.656 380.688 963.619 379.946 964.092 379.77 964.466 379.398 964.644 378.925 964.81 378.504 964.81 378.035 964.644 377.614 965.314 376.88 965.271 375.745 964.548 375.064 964.751 374.6 964.751 374.073 964.548 373.61 964.369 373.192 964.036 372.859 963.619 372.68 963.597 372.231 963.41 371.807 963.094 371.488 962.761 371.148 962.305 370.958 961.829 370.961 961.798 370.961 961.767 370.961 961.736 370.961 961.56 370.487 961.186 370.113 960.711 369.937 960.499 369.854 960.273 369.811 960.046 369.811 959.824 369.811 959.604 369.853 959.399 369.937 959.067 369.635 958.635 369.464 958.186 369.458 957.682 369.456 957.2 369.663 956.854 370.03 956.62 369.931 956.369 369.88 956.115 369.878 955.869 369.878 955.626 369.93 955.401 370.03 954.984 370.21 954.651 370.542 954.471 370.96 954.023 370.981 953.599 371.168 953.28 371.484 952.917 371.84 952.726 372.335 952.756 372.843 952.282 373.019 951.907 373.393 951.731 373.868 951.564 374.289 951.564 374.758 951.731 375.179 951.429 375.512 951.26 375.945 951.255 376.394 951.253 376.898 951.46 377.38 951.827 377.725 951.624 378.189 951.624 378.716 951.827 379.179 952.006 379.597 952.339 379.93 952.756 380.109 952.777 380.557 952.964 380.982 953.28 381.301 953.437 381.456 953.621 381.582 953.823 381.67L950.456 388.02 953.5 387.544ZM962.006 385.918 961.483 387.035 959.308 382.943C959.384 382.887 959.454 382.826 959.52 382.758 959.754 382.858 960.005 382.91 960.259 382.911 960.506 382.911 960.749 382.859 960.974 382.758 961.102 382.699 961.223 382.627 961.335 382.541L963.227 386.108ZM953.172 378.577C953.14 378.487 953.145 378.389 953.186 378.303L953.586 377.352 952.832 376.648C952.765 376.581 952.727 376.489 952.73 376.394 952.736 376.297 952.779 376.206 952.851 376.141L953.443 375.453 953.097 374.615C953.076 374.542 953.081 374.463 953.112 374.394 953.136 374.319 953.193 374.259 953.266 374.23L954.283 373.855 954.232 372.772C954.222 372.681 954.257 372.591 954.325 372.529 954.386 372.471 954.467 372.437 954.552 372.436L955.483 372.384 955.838 371.523C955.874 371.454 955.934 371.402 956.007 371.375 956.04 371.36 956.077 371.352 956.113 371.353 956.17 371.354 956.227 371.367 956.279 371.389L957.231 371.789 957.935 371.035C958.001 370.969 958.092 370.934 958.186 370.938 958.282 370.943 958.373 370.986 958.438 371.058L959.126 371.65 959.964 371.304C959.991 371.294 960.019 371.289 960.047 371.29 960.094 371.291 960.141 371.301 960.185 371.318 960.26 371.343 960.32 371.4 960.348 371.473L960.746 372.49 961.829 372.438C961.914 372.434 961.996 372.468 962.051 372.532 962.11 372.593 962.144 372.675 962.145 372.76L962.196 373.69 963.059 374.045C963.125 374.083 963.176 374.142 963.202 374.214 963.234 374.303 963.229 374.402 963.188 374.487L962.787 375.439 963.542 376.143C963.61 376.209 963.647 376.301 963.644 376.396 963.642 376.475 963.612 376.55 963.559 376.609L962.92 377.302 963.278 378.175C963.3 378.248 963.295 378.327 963.264 378.397 963.24 378.472 963.183 378.532 963.11 378.56L962.093 378.935 962.144 380.019C962.154 380.11 962.119 380.2 962.051 380.261 961.99 380.319 961.909 380.353 961.824 380.355L960.893 380.406 960.538 381.268C960.501 381.335 960.441 381.386 960.37 381.412 960.336 381.427 960.299 381.434 960.262 381.434 960.205 381.433 960.149 381.42 960.097 381.397L959.14 380.996 958.435 381.751C958.369 381.819 958.277 381.856 958.183 381.853 958.086 381.848 957.995 381.804 957.93 381.732L957.242 381.141 956.404 381.486C956.377 381.496 956.349 381.501 956.321 381.499 956.274 381.499 956.227 381.49 956.183 381.471 956.108 381.448 956.048 381.391 956.02 381.318L955.622 380.301 954.539 380.352C954.454 380.356 954.372 380.322 954.317 380.258 954.258 380.197 954.224 380.116 954.223 380.031L954.172 379.1 953.309 378.745C953.245 378.707 953.197 378.647 953.172 378.577ZM955.072 382.475C955.242 382.638 955.443 382.766 955.664 382.851 955.876 382.933 956.101 382.976 956.329 382.976 956.551 382.977 956.77 382.934 956.976 382.851 957.007 382.878 957.043 382.9 957.076 382.925L954.893 387.031 954.369 385.914 953.149 386.104Z" fill="#FFFFFF"/><path d="M958.186 380.518C960.463 380.519 962.31 378.673 962.311 376.396 962.312 374.118 960.466 372.271 958.188 372.27 955.911 372.269 954.064 374.115 954.063 376.393 954.063 376.393 954.063 376.394 954.063 376.394 954.064 378.671 955.909 380.517 958.186 380.518ZM958.186 373.75C959.646 373.749 960.831 374.933 960.832 376.393 960.833 377.854 959.649 379.039 958.188 379.04 956.728 379.04 955.543 377.857 955.542 376.396 955.542 376.396 955.542 376.395 955.542 376.394 955.543 374.934 956.725 373.75 958.186 373.748Z" fill="#FFFFFF"/><path d="M987.688 345.037C987.688 343.403 986.363 342.078 984.729 342.078L973.635 342.078 973.635 340.599C973.633 338.558 971.979 336.904 969.938 336.901L961.062 336.901C959.021 336.904 957.367 338.558 957.365 340.599L957.365 342.078 946.271 342.078C944.638 342.08 943.315 343.404 943.312 345.037L943.312 393.125C943.312 394.759 944.637 396.083 946.271 396.083L984.729 396.083C986.363 396.083 987.688 394.759 987.688 393.125ZM955.885 343.557 958.844 343.557 958.844 340.599C958.844 339.374 959.837 338.38 961.062 338.38L969.938 338.38C971.163 338.38 972.156 339.374 972.156 340.599L972.156 343.557 975.115 343.557 975.115 349.49 955.885 349.49ZM984.729 394.604 946.271 394.604C945.454 394.604 944.792 393.942 944.792 393.125L944.792 345.037C944.792 344.22 945.454 343.557 946.271 343.557L954.406 343.557 954.406 350.969 976.594 350.969 976.594 343.557 984.729 343.557C985.546 343.557 986.208 344.22 986.208 345.037L986.208 393.125C986.208 393.942 985.546 394.604 984.729 394.604Z" fill="#FFFFFF"/></g></g></g><path d="M0 0-1.57852 0-1.57852 59.478 263.972 59.478" stroke="#FFFFFF" stroke-width="2.66667" stroke-miterlimit="8" fill="none" fill-rule="evenodd" transform="matrix(-1 1.22465e-16 1.22465e-16 1 573.472 301.5)"/><path d="M653.5 301.5 651.922 301.5 651.922 360.978 917.472 360.978" stroke="#FFFFFF" stroke-width="2.66667" stroke-miterlimit="8" fill="none" fill-rule="evenodd"/><path d="M965.5 405.5 965.5 416.577" stroke="#FFFFFF" stroke-width="2.66667" stroke-miterlimit="8" fill="none" fill-rule="evenodd"/><path d="M258.5 408.5 258.5 419.577" stroke="#FFFFFF" stroke-width="2.66667" stroke-miterlimit="8" fill="none" fill-rule="evenodd"/></g></svg>